<!DOCTYPE svg PUBLIC "-//W3C//DTD SVG 1.1//EN" "http://www.w3.org/Graphics/SVG/1.1/DTD/svg11.dtd">
<!-- Uploaded to: SVG Repo, www.svgrepo.com, Transformed by: SVG Repo Mixer Tools -->
<svg height="800px" width="800px" version="1.1" id="_x32_" xmlns="http://www.w3.org/2000/svg" xmlns:xlink="http://www.w3.org/1999/xlink" viewBox="-51.2 -51.2 614.40 614.40" xml:space="preserve" fill="#000000" transform="matrix(-1, 0, 0, 1, 0, 0)rotate(0)">
<g id="SVGRepo_bgCarrier" stroke-width="0"/>
<g id="SVGRepo_tracerCarrier" stroke-linecap="round" stroke-linejoin="round" stroke="#CCCCCC" stroke-width="1.024"/>
<g id="SVGRepo_iconCarrier"> <style type="text/css"> .st0{fill:#000000;} </style> <g> <path class="st0" d="M491.865,212.589c-13.51-18.004-33.904-32.937-61.199-41.685c-36.596-11.733-58.137-18.962-73.709-24.613 c-15.588-5.65-25.233-9.74-38.269-15.295c-3.7-1.588-6.703-3.347-9.11-5.168c-3.615-2.768-5.91-5.676-7.358-8.575 c-1.433-2.916-2.036-5.84-2.036-8.704c0-2.648,0.526-5.228,1.398-7.514c0.846-2.286,2.071-4.27,3.313-5.702 c1.173-1.363,1.45-3.287,0.708-4.926c-0.751-1.648-2.382-2.7-4.193-2.7c-6.401,0-12.613,1.26-18.35,3.477 c-8.592,3.32-16.089,8.842-21.542,15.778c-2.726,3.485-4.917,7.324-6.452,11.43c-1.518,4.107-2.364,8.49-2.364,13.001 c-0.009,7.376,2.278,15.045,7.221,22.275c4.926,7.238,12.44,14.036,22.869,20.083c22.137,12.82,34.077,19.704,42.989,24.786 c8.911,5.081,14.795,8.36,24.768,13.933c8.143,4.537,13.639,8.894,16.935,12.664c1.648,1.898,2.743,3.632,3.416,5.151 c0.672,1.526,0.914,2.829,0.914,3.994c0,0.786-0.104,1.528-0.346,2.261c-0.396,1.268-1.182,2.57-2.415,3.873 c-1.881,1.958-4.814,3.874-8.575,5.392c-3.761,1.519-8.316,2.648-13.303,3.235l-0.259,0.043c-4.314,0.75-8.17,1.268-11.904,1.268 c-2.485,0-4.926-0.216-7.463-0.75c-2.536-0.535-5.176-1.363-8.048-2.648c-4.685-2.088-9.826-3.39-15.408-3.39 c-4.529,0-9.308,0.846-14.398,2.64c-0.863,0.311-1.518,0.397-2.122,0.397c-0.708,0-1.397-0.129-2.226-0.431 c-1.26-0.44-2.795-1.329-4.676-2.45c-1.855-1.113-4.055-2.451-6.72-3.564c-2.304-0.958-4.633-1.294-6.806-1.294 c-3.278,0.008-6.263,0.699-8.921,1.363c-1.346,0.319-2.588,0.647-3.727,0.906c-1.156,0.259-2.165,0.449-3.028,0.534 c-0.629,0.061-1.181,0.096-1.664,0.096c-0.863,0-1.536-0.087-2.226-0.242c-0.518-0.129-1.044-0.301-1.673-0.56 c-1.881-0.768-4.607-2.382-8.904-4.849c-1.88-1.087-3.813-1.829-5.676-2.278c-1.881-0.466-3.71-0.638-5.418-0.638 c-3.106,0.008-5.849,0.534-8.222,1c-2.252,0.449-4.184,0.811-5.668,0.828c-4.917-0.638-8.903-1.156-11.689-1.527 c-1.415-0.198-2.528-0.337-3.269-0.44c-0.363-0.043-0.656-0.086-0.846-0.112c-0.018,0-0.034,0-0.061-0.008 c-0.699-0.181-1.682-0.51-2.821-1.001c-2.165-0.914-4.882-2.346-7.885-3.951c-4.52-2.442-9.696-5.297-15.132-7.592 c-2.718-1.156-5.512-2.165-8.36-2.898c-2.838-0.742-5.728-1.216-8.653-1.216c-1.863,0-3.735,0.199-5.59,0.648 c-2.777,0.646-5.487,1.897-7.902,3.787c-2.433,1.889-4.572,4.391-6.341,7.479c-1.596,2.744-3.545,4.858-5.737,6.548 c-3.278,2.536-7.178,4.115-11.025,5.029c-3.848,0.923-7.61,1.173-10.456,1.173c-1.553,0-2.847-0.069-3.718-0.138 c-0.44-0.043-0.768-0.078-0.992-0.103c-0.052,0-0.086-0.009-0.121-0.009c-0.052-0.009-0.087-0.009-0.104-0.018l-59.957-12.983 c-0.854-0.708-2.183-1.734-3.899-2.77c-1.51-0.906-3.33-1.82-5.452-2.528c-2.114-0.708-4.521-1.208-7.143-1.208 c-2.614,0-5.443,0.518-8.247,1.726c-2.83,1.208-5.608,3.123-8.265,5.78c-3.036,3.045-5.176,6.306-6.487,9.567 C0.518,241.524,0,244.768,0,247.77c0,2.718,0.423,5.228,1.026,7.471c0.923,3.348,2.27,6.1,3.391,8.041 c1.131,1.95,2.045,3.106,2.157,3.244c0.569,0.716,1.328,1.233,2.208,1.51l10.016,3.166c0.086,0.88,0.198,1.803,0.319,2.76 c0.38,2.83,0.932,5.936,1.751,9.015c0.811,2.994,1.872,5.979,3.313,8.687c0.286,0.828,0.682,1.588,1.148,2.321 c0.811,1.208,1.829,2.338,3.045,3.235c0.613,0.448,1.285,0.845,2.019,1.156c0.733,0.31,1.561,0.509,2.459,0.509 c0.828,0.009,1.725-0.199,2.536-0.63c0.604-0.319,1.139-0.776,1.588-1.303c0.672-0.784,1.156-1.716,1.501-2.76 c0.328-1.052,0.552-2.225,0.664-3.588c0.388-4.529,1.716-8.8,3.028-12.026l11.939,3.752c0.345,2.484,0.828,5.176,1.553,7.868 c0.724,2.726,1.7,5.46,3.02,7.954c0.276,0.759,0.638,1.467,1.07,2.14c0.759,1.13,1.691,2.174,2.83,3.02 c0.57,0.422,1.191,0.793,1.898,1.078c0.691,0.286,1.467,0.492,2.338,0.492c0.785,0,1.648-0.19,2.424-0.612 c0.57-0.311,1.087-0.734,1.518-1.234c0.639-0.742,1.087-1.622,1.406-2.596c0.319-0.984,0.518-2.08,0.63-3.339 c0.241-2.967,0.966-5.822,1.776-8.29h0.009l7.773,2.441l0.328,0.112c0.293,1.579,0.63,3.2,1.061,4.822 c0.733,2.735,1.716,5.461,3.028,7.945c0.276,0.768,0.63,1.476,1.07,2.148c0.742,1.139,1.691,2.174,2.846,3.02 c0.57,0.431,1.182,0.793,1.881,1.079c0.691,0.284,1.468,0.491,2.33,0.491c0.794,0,1.656-0.19,2.415-0.604 c0.588-0.32,1.104-0.742,1.536-1.243c0.638-0.741,1.078-1.622,1.398-2.605c0.328-0.974,0.534-2.071,0.638-3.322 c0.164-1.975,0.536-3.89,1.001-5.668l0.474,0.147l69.318,21.878l-53.357,5.892c-0.828-2.355-1.562-5.107-1.906-8.023 c-0.121-1.036-0.293-1.968-0.561-2.795c-0.38-1.234-0.906-2.312-1.794-3.2c-0.441-0.431-0.975-0.794-1.545-1.044 c-0.587-0.241-1.208-0.353-1.794-0.353c-0.603,0-1.164,0.112-1.673,0.284c-0.872,0.302-1.587,0.759-2.226,1.276 c-0.949,0.785-1.742,1.717-2.364,2.718c-0.594,0.94-1.07,1.915-1.345,2.984c-1.381,3.192-2.226,6.721-2.778,10.146l-14.251,1.561 c-1.001-2.691-1.933-5.961-2.338-9.412c-0.129-1.096-0.319-2.079-0.587-2.933c-0.397-1.303-0.958-2.424-1.863-3.33 c-0.448-0.449-0.992-0.828-1.596-1.078c-0.587-0.251-1.233-0.363-1.838-0.354c-0.612,0-1.182,0.104-1.716,0.285 c-0.898,0.311-1.648,0.794-2.313,1.328c-1,0.811-1.811,1.795-2.475,2.847c-0.613,0.983-1.122,2.019-1.406,3.14 c-1.579,3.658-2.511,7.73-3.088,11.638l-13.294,1.466c-1.285-3.028-2.614-7.083-3.132-11.431c-0.121-1.113-0.319-2.096-0.586-2.976 c-0.414-1.303-0.966-2.442-1.881-3.347c-0.449-0.449-1.001-0.828-1.604-1.079c-0.595-0.259-1.243-0.362-1.846-0.362 c-0.621,0-1.2,0.103-1.717,0.293c-0.922,0.311-1.664,0.776-2.338,1.329c-1.001,0.828-1.828,1.812-2.493,2.864 c-0.613,0.984-1.113,2.019-1.406,3.132c-1.863,4.279-2.83,9.17-3.399,13.682c0,0.043,0,0.104-0.017,0.155l-15.83,1.743 c-1.441,0.163-2.71,0.983-3.443,2.234c-0.75,1.242-0.862,2.744-0.319,4.089l5.927,14.554c3.917,9.602,13.251,15.873,23.62,15.873 h200.231l-0.017,0.501c-2.398,0.336-5.599,1.009-8.834,2.527c-1.881,0.88-3.762,2.062-5.47,3.675 c-1.691,1.596-3.174,3.649-4.14,6.142l-0.268,0.716v0.768c0,0.586,0.112,1.138,0.268,1.605c0.345,0.931,0.828,1.536,1.251,1.984 c0.423,0.413,0.802,0.724,1.199,0.974c0.725,0.492,1.433,0.82,2.174,1.147c1.303,0.552,2.71,1.001,4.167,1.423 c0.648,0.181,1.312,0.354,1.958,0.518c-0.82,1.122-1.622,2.382-2.312,3.753c-0.432,0.906-0.828,1.864-1.122,2.882 c-0.294,1.036-0.484,2.122-0.484,3.304c0,1.026,0.156,2.114,0.518,3.175c0.285,0.82,0.811,1.596,1.406,2.14 c0.44,0.406,0.923,0.699,1.372,0.923c0.673,0.319,1.294,0.483,1.863,0.587c0.579,0.086,1.104,0.112,1.64,0.121 c0.983-0.009,1.958-0.112,2.95-0.276c1.726-0.293,3.536-0.759,5.348-1.294c0.69-0.198,1.381-0.414,2.045-0.63 c-0.078,0.285-0.164,0.578-0.251,0.872c-0.413,1.638-0.724,3.295-0.733,5.029c0,0.682,0.052,1.397,0.216,2.148 c0.12,0.569,0.31,1.164,0.629,1.776c0.458,0.906,1.251,1.855,2.304,2.467c0.518,0.311,1.087,0.536,1.648,0.673 c0.561,0.138,1.113,0.19,1.648,0.19c0.156,0,0.302,0,0.44-0.009l0.043-0.009c1.113-0.069,2.071-0.319,3.045-0.621 c1.692-0.543,3.408-1.328,5.133-2.2c1.846-0.94,3.693-1.984,5.297-2.959c0.112,0.293,0.207,0.587,0.346,0.881 c0.569,1.302,1.346,2.674,2.64,3.916c0.656,0.604,1.45,1.173,2.381,1.578c0.932,0.406,1.993,0.648,3.072,0.648h0.034 c0.086,0,0.138,0,0.138,0c1.019-0.018,1.968-0.259,2.77-0.621c1.579-0.726,2.683-1.778,3.649-2.9c0.828-0.983,1.536-2.07,2.2-3.226 c1.147-2.018,2.148-4.262,3.037-6.539c1.32-3.4,2.39-6.859,3.131-9.49c0.742-2.622,1.156-4.434,1.174-4.477l0.042-0.199 l0.027-0.189c0,0,0.12-0.898,0.328-2.468c0.518-3.874,1.596-11.888,2.812-20.929c34.336,0,68.852,0,101.168,0 c11.577,0,22.353-1.217,32.299-3.451l-0.138,3.943c-2.398,0.336-5.59,1.009-8.834,2.527c-1.872,0.88-3.762,2.062-5.461,3.675 c-1.699,1.596-3.183,3.649-4.132,6.142l-0.276,0.716v0.768c-0.009,0.586,0.104,1.138,0.276,1.605 c0.328,0.931,0.811,1.536,1.242,1.984c0.414,0.413,0.811,0.724,1.191,0.974c0.724,0.492,1.432,0.82,2.182,1.147 c1.303,0.552,2.718,1.001,4.167,1.423c0.648,0.181,1.312,0.354,1.95,0.518c-0.811,1.122-1.622,2.382-2.294,3.753 c-0.449,0.906-0.846,1.864-1.131,2.882c-0.302,1.036-0.491,2.122-0.491,3.304c0,1.026,0.154,2.114,0.526,3.175 c0.285,0.82,0.803,1.596,1.406,2.14c0.449,0.406,0.914,0.699,1.363,0.923c0.673,0.319,1.294,0.483,1.863,0.587 c0.588,0.086,1.122,0.112,1.64,0.121c1.001-0.009,1.966-0.112,2.96-0.276c1.725-0.293,3.545-0.759,5.339-1.294 c0.691-0.198,1.381-0.414,2.054-0.63c-0.087,0.285-0.173,0.578-0.242,0.872c-0.414,1.638-0.742,3.295-0.742,5.029 c0,0.682,0.052,1.397,0.208,2.148c0.138,0.569,0.328,1.164,0.638,1.776c0.449,0.906,1.243,1.855,2.313,2.467 c0.518,0.311,1.07,0.536,1.639,0.673c0.552,0.138,1.104,0.19,1.64,0.19c0.154,0,0.31,0,0.448-0.009l0.052-0.009 c1.104-0.069,2.07-0.319,3.036-0.621c1.692-0.543,3.399-1.328,5.125-2.2c1.864-0.94,3.692-1.984,5.314-2.959 c0.103,0.293,0.207,0.587,0.328,0.881c0.587,1.302,1.363,2.674,2.64,3.916c0.656,0.604,1.45,1.173,2.382,1.578 c0.931,0.406,2.001,0.648,3.071,0.648h0.034c0.104,0,0.138,0,0.156,0c1.001-0.018,1.95-0.259,2.761-0.621 c1.587-0.726,2.692-1.778,3.64-2.9c0.828-0.983,1.535-2.07,2.208-3.226c1.156-2.018,2.156-4.262,3.037-6.539 c1.311-3.4,2.381-6.859,3.123-9.49c0.742-2.622,1.156-4.434,1.173-4.477l0.051-0.199l0.018-0.189c0,0,0.121-0.898,0.328-2.468 c0.742-5.496,2.605-19.359,4.417-32.644c0.914-6.652,1.812-13.165,2.554-18.41c0.293-2.201,0.586-4.167,0.828-5.841 C503.528,319.046,512,295.84,512,272.322C512,251.574,505.392,230.577,491.865,212.589z M33.645,290.128 c-0.087,0.923-0.224,1.639-0.371,2.156c-0.198,0.682-0.405,0.975-0.491,1.07c-0.086-0.018-0.293-0.069-0.552-0.216 c-0.518-0.268-1.225-0.836-1.777-1.518c-0.561-0.664-0.966-1.423-1.07-1.82l-0.086-0.294l-0.138-0.251 c-1.225-2.234-2.2-4.926-2.95-7.712c-0.768-2.864-1.286-5.823-1.639-8.532l12.301,3.891l0.018,0.009 C35.483,280.449,34.076,285.038,33.645,290.128z M67.282,296.633c-0.078,0.828-0.198,1.466-0.319,1.915 c-0.103,0.346-0.206,0.569-0.293,0.716c0,0-0.018,0.035-0.018,0.043c-0.103-0.026-0.224-0.086-0.37-0.172 c-0.458-0.241-1.062-0.759-1.51-1.329c-0.466-0.561-0.803-1.216-0.881-1.518l-0.086-0.294l-0.146-0.259 c-1.096-2.018-1.993-4.442-2.666-6.97c-0.405-1.51-0.724-3.054-1.001-4.564l9.308,2.942 C68.378,289.904,67.584,293.13,67.282,296.633z M95.38,302.62c-0.078,0.829-0.199,1.466-0.328,1.915 c-0.104,0.346-0.208,0.57-0.284,0.708c-0.009,0.034-0.018,0.034-0.027,0.052c-0.086-0.034-0.224-0.086-0.371-0.164 c-0.457-0.25-1.043-0.768-1.51-1.338c-0.466-0.578-0.802-1.216-0.88-1.535l-0.086-0.276l-0.147-0.251 c-1.096-2.018-1.993-4.451-2.666-6.979c-0.138-0.492-0.25-0.983-0.362-1.484l7.885,2.485 C96.044,297.875,95.586,300.179,95.38,302.62z M108.268,319.149l0.112-0.241l0.069-0.259c0.043-0.25,0.198-0.664,0.422-1.078 c0.345-0.647,0.872-1.32,1.328-1.716c0.078-0.061,0.139-0.121,0.208-0.164c0.051,0.095,0.086,0.216,0.129,0.345 c0.146,0.449,0.284,1.096,0.388,1.941c0.345,2.898,1.018,5.608,1.777,7.989l-6.642,0.733 C106.56,323.998,107.293,321.366,108.268,319.149z M75.106,321.34l0.12-0.25l0.052-0.268c0.069-0.276,0.224-0.733,0.483-1.182 c0.371-0.699,0.949-1.423,1.45-1.855c0.138-0.129,0.276-0.241,0.397-0.31c0.051,0.086,0.103,0.216,0.156,0.379 c0.172,0.483,0.362,1.234,0.482,2.278c0.414,3.468,1.243,6.66,2.192,9.394l-7.885,0.872 C73.114,327.181,73.95,323.971,75.106,321.34z M41.72,322.91l0.094-0.241l0.061-0.259c0.069-0.293,0.224-0.742,0.491-1.208 c0.38-0.716,0.958-1.449,1.467-1.898c0.164-0.138,0.32-0.259,0.448-0.337c0.044,0.104,0.112,0.25,0.172,0.423 c0.19,0.491,0.371,1.259,0.492,2.312c0.518,4.348,1.691,8.273,2.916,11.422l-9.058,1C39.339,330.2,40.28,326.136,41.72,322.91z M486.93,322.695c-0.103-0.268-0.207-0.535-0.31-0.785c-0.863-1.829-2.036-3.407-3.365-4.745c-2.346-2.33-5.176-3.943-8.058-5.132 c-4.348-1.786-8.903-2.649-12.647-3.106c-3.744-0.465-6.678-0.509-7.695-0.509c-0.242,0-0.38,0.009-0.414,0.009l0.224,7.876 l-0.018-1.018l0.034,1.432c0.018,0,0.087,0,0.173,0c0.673,0,2.761,0.018,5.452,0.293c2.018,0.208,4.365,0.552,6.729,1.113 c1.778,0.414,3.52,0.958,5.125,1.631c2.415,1.001,4.417,2.303,5.693,3.762c0.639,0.741,1.104,1.51,1.45,2.38 c0.328,0.863,0.535,1.838,0.535,3.036c0,0.613-0.052,1.294-0.19,2.045c-0.172,1.009-0.431,2.717-0.759,5.012 c-2.226,15.338-7.696,56.196-8.11,59.362c-0.259,1.044-1.604,6.444-3.52,11.62c-0.518,1.397-1.088,2.778-1.656,4.029 c-0.863,1.88-1.794,3.494-2.536,4.365c-0.121,0.146-0.224,0.25-0.328,0.354c-0.121-0.181-0.259-0.423-0.398-0.733 c-0.413-0.863-0.741-2.096-0.914-3.072c-0.086-0.474-0.156-0.905-0.19-1.182c-0.017-0.138-0.017-0.25-0.034-0.31v-0.07 l-0.518-7.126l-5.935,3.986l-0.018,0.026c-0.31,0.199-3.226,2.148-6.539,4.029c-1.656,0.94-3.416,1.863-4.918,2.518 c-0.294,0.138-0.587,0.259-0.862,0.371c0.069-0.406,0.156-0.837,0.276-1.303c0.483-1.863,1.26-3.968,1.898-5.556 c0.328-0.802,0.621-1.475,0.828-1.941c0.103-0.241,0.19-0.422,0.242-0.543l0.069-0.13l0.017-0.026v-0.009l4.659-9.8l-10.007,4.2 h-0.034c-0.294,0.139-3.296,1.381-6.781,2.563c-1.743,0.587-3.589,1.164-5.237,1.579c-0.699,0.172-1.354,0.311-1.941,0.414 c0.241-0.656,0.621-1.424,1.104-2.192c0.896-1.483,2.131-2.958,3.105-4.011c0.492-0.535,0.915-0.958,1.208-1.251 c0.154-0.146,0.267-0.25,0.344-0.328l0.078-0.069l0.009-0.009l6.314-5.702l-8.376-1.466h-0.026 c-0.371-0.06-3.969-0.716-7.299-1.604c-0.828-0.216-1.64-0.458-2.373-0.691c-0.008,0-0.008-0.008-0.008-0.008 c0.811-0.854,1.829-1.58,2.968-2.183c2.105-1.122,4.641-1.76,6.608-2.062c1.001-0.164,1.846-0.242,2.433-0.284 c0.294-0.018,0.536-0.018,0.691-0.026l0.172-0.008h0.034h4.003l1.07-31.239l-8.282-0.276v-0.009l-0.346,10.076 c-9.886,2.433-20.756,3.779-32.626,3.779c-31.92,0-65.987,0-99.909,0c0.121-0.828,0.224-1.674,0.346-2.502 c0.905-6.652,1.794-13.165,2.536-18.41c0.38-2.623,0.699-4.926,0.966-6.781c0.276-1.846,0.483-3.244,0.621-3.986l-8.178-1.38 c-0.172,1-0.431,2.708-0.759,5.004c-2.226,15.338-7.695,56.196-8.127,59.362c-0.241,1.044-1.587,6.444-3.502,11.62 c-0.536,1.397-1.088,2.778-1.674,4.029c-0.854,1.88-1.794,3.494-2.536,4.365c-0.103,0.146-0.216,0.25-0.311,0.354 c-0.12-0.181-0.276-0.423-0.414-0.733c-0.406-0.863-0.742-2.096-0.915-3.072c-0.086-0.474-0.138-0.905-0.172-1.182 c-0.017-0.138-0.034-0.25-0.034-0.31l-0.017-0.07l-0.518-7.126l-5.919,3.986l-0.034,0.026c-0.293,0.199-3.226,2.148-6.539,4.029 c-1.648,0.94-3.399,1.863-4.9,2.518c-0.31,0.138-0.604,0.259-0.88,0.371c0.078-0.406,0.172-0.837,0.293-1.303 c0.466-1.863,1.242-3.968,1.898-5.556c0.328-0.802,0.613-1.475,0.828-1.941c0.104-0.241,0.181-0.422,0.241-0.543l0.061-0.13 l0.017-0.026v-0.009l4.667-9.808l-10.015,4.209h-0.026c-0.31,0.139-3.313,1.381-6.78,2.563c-1.743,0.587-3.598,1.164-5.246,1.579 c-0.708,0.172-1.354,0.311-1.95,0.414c0.259-0.656,0.638-1.424,1.113-2.192c0.906-1.483,2.131-2.958,3.114-4.011 c0.483-0.535,0.914-0.958,1.208-1.251c0.139-0.146,0.259-0.25,0.328-0.328l0.086-0.069l0.018-0.009l6.306-5.694l-8.376-1.475 h-0.035c-0.362-0.06-3.951-0.716-7.281-1.604c-0.838-0.216-1.648-0.458-2.382-0.691c0,0-0.008-0.008-0.017-0.008 c0.828-0.854,1.828-1.58,2.985-2.183c2.104-1.122,4.633-1.76,6.608-2.062c0.983-0.164,1.838-0.242,2.433-0.284 c0.293-0.018,0.526-0.018,0.682-0.026l0.172-0.008h0.043h4.003l1.07-31.239l-8.291-0.276v-0.009l-0.474,13.855H43.1 c-6.625,0-12.595-4.012-15.08-10.146l-3.64-8.903l8.126-0.897l5.539-0.612l2.622-0.284h0.018l15.183-1.691h0.009l10.137-1.113 l5.556-0.621l6.919-0.768l5.918-0.647l1.915-0.216l4.176-0.457l8.92-0.984l5.556-0.621l6.747-0.733l4.814-0.534l2.813-0.311 l3.252-0.362l71.802-7.928c2.156-0.25,3.865-1.966,4.071-4.132c0.208-2.174-1.104-4.185-3.209-4.849l-89.254-28.158l-2.553-0.811 l-2.822-0.897l-13.57-4.288l-3.848-1.208h-0.008l-1.752-0.561l-3.011-0.949l-2.717-0.846l-2.709-0.863l-14.096-4.452l-3.433-1.086 l-2.14-0.673l-6.815-2.156l-22.672-7.143l-1.535-0.501H22.31l-3.968-1.242l-5.314-1.691c-0.449-0.681-1.036-1.691-1.622-2.899 c-1.147-2.416-2.208-5.651-2.2-9.041c0-1.95,0.336-3.951,1.182-6.03c0.845-2.096,2.226-4.287,4.494-6.564 c1.941-1.933,3.735-3.097,5.375-3.814c1.639-0.699,3.14-0.966,4.607-0.966s2.898,0.276,4.227,0.734 c2.002,0.664,3.796,1.716,5.038,2.614c0.621,0.448,1.104,0.836,1.415,1.104c0.154,0.138,0.259,0.241,0.328,0.301l0.051,0.043 c0,0,0,0.018,0.018,0.018c0.621,0.612,1.414,1.052,2.26,1.233l61.432,13.277l0.32,0.061c0.156,0.026,2.588,0.371,6.298,0.371 c4.502,0,10.904-0.501,17.444-2.882c3.278-1.199,6.591-2.864,9.662-5.245c3.072-2.347,5.884-5.401,8.084-9.248 c1.716-2.942,3.528-4.65,5.426-5.729c0.949-0.552,1.933-0.931,3.002-1.181c1.052-0.251,2.2-0.38,3.433-0.38 c2.934-0.009,6.384,0.75,10,2.036c5.426,1.923,11.18,5.004,16.468,7.859c2.657,1.432,5.185,2.795,7.583,3.951 c2.407,1.139,4.65,2.088,6.928,2.622l0.397,0.07c0.018,0,6.324,0.862,16.495,2.182c0.19,0.018,0.396,0.034,0.604,0.034 c2.812-0.008,5.331-0.56,7.669-1.009c2.338-0.458,4.478-0.829,6.462-0.829c1.104,0,2.156,0.112,3.226,0.362 c1.053,0.259,2.14,0.673,3.313,1.337c3.727,2.131,6.332,3.727,8.955,4.935c1.311,0.595,2.64,1.095,4.046,1.432 c1.406,0.336,2.855,0.492,4.357,0.492c0.846,0,1.691-0.043,2.571-0.13v-0.009c1.441-0.138,2.83-0.413,4.158-0.706 c2.01-0.467,3.925-1.001,5.728-1.39c1.794-0.397,3.46-0.647,4.884-0.647c1.276,0,2.328,0.19,3.277,0.57 c2.511,1.044,4.823,2.588,7.454,4.106c1.32,0.759,2.726,1.484,4.33,2.071c1.605,0.587,3.399,0.983,5.366,0.983 c1.682,0,3.433-0.302,5.176-0.923c2.14-0.751,4.124-1.276,6.004-1.622c1.881-0.337,3.64-0.491,5.34-0.491 c4.167,0.008,7.911,0.94,11.655,2.596c3.434,1.519,6.721,2.58,9.922,3.253c3.208,0.664,6.306,0.931,9.343,0.931 c4.495,0,8.816-0.596,13.242-1.371c0.043,0,0.094-0.009,0.147-0.009c0.034,0,0.069-0.018,0.103-0.026 c4.245-0.51,8.282-1.372,11.991-2.572c5.642-1.828,10.577-4.399,14.304-7.902c1.854-1.743,3.416-3.752,4.52-6.013 c1.104-2.26,1.725-4.779,1.708-7.384c0.017-2.562-0.578-5.168-1.7-7.704c-1.683-3.804-4.529-7.505-8.524-11.163 c-3.994-3.667-9.187-7.316-15.76-10.982c-9.974-5.573-15.823-8.834-24.682-13.89c-8.886-5.064-20.816-11.939-42.953-24.759 c-9.507-5.505-15.9-11.457-19.868-17.297c-3.986-5.858-5.617-11.594-5.625-17.09c0-4.477,1.104-8.825,3.14-12.906 c3.037-6.099,8.196-11.544,14.58-15.391c4.037-2.467,8.566-4.279,13.32-5.28c-1.224,3.244-1.984,6.884-1.984,10.732 c0,2.77,0.397,5.642,1.278,8.514c1.346,4.306,3.795,8.576,7.574,12.398c3.752,3.838,8.782,7.246,15.252,9.998 c13.027,5.574,22.948,9.774,38.744,15.485c15.77,5.729,37.389,12.984,74.019,24.726c25.691,8.255,44.36,22.067,56.679,38.441 c12.302,16.383,18.272,35.405,18.272,54.212C502.787,290.145,497.404,307.744,486.93,322.695z"/> <path class="st0" d="M341.118,275.134c0.112-1.26-0.828-2.381-2.087-2.502c-2.356-0.207-4.737-0.534-7.101-0.966 c-1.251-0.224-2.45,0.604-2.674,1.864c-0.224,1.251,0.604,2.45,1.863,2.674c2.485,0.449,4.996,0.793,7.498,1.018 C339.884,277.334,340.997,276.403,341.118,275.134z"/> <path class="st0" d="M319.49,270.838c0.414-1.2-0.224-2.51-1.432-2.934c-2.64-0.897-5.297-1.302-7.902-1.389 c-1.269-0.043-2.33,0.958-2.381,2.226c-0.034,1.268,0.966,2.338,2.234,2.372c2.234,0.078,4.408,0.414,6.557,1.148 C317.765,272.685,319.076,272.037,319.49,270.838z"/> <path class="st0" d="M336.227,173.734c-1.165-0.501-2.52,0.034-3.02,1.208c-0.501,1.173,0.034,2.52,1.216,3.028 c2.303,0.983,4.546,1.966,6.711,2.933c1.156,0.526,2.52,0.009,3.037-1.156c0.518-1.156,0-2.519-1.156-3.046 C340.825,175.718,338.573,174.726,336.227,173.734z"/> <path class="st0" d="M276.614,268.518c0.561-1.147,0.087-2.528-1.052-3.088c-2.33-1.139-4.797-2.045-7.299-2.726 c-1.225-0.336-2.502,0.388-2.829,1.613c-0.346,1.225,0.38,2.493,1.613,2.83c2.252,0.621,4.452,1.423,6.488,2.415 C274.673,270.131,276.053,269.656,276.614,268.518z"/> <path class="st0" d="M253.278,265.8c1.268-0.121,2.192-1.243,2.07-2.51c-0.112-1.269-1.251-2.2-2.51-2.08 c-2.208,0.216-4.245,0.639-6.03,1.303c-0.509,0.199-1.018,0.362-1.51,0.5c-1.225,0.337-1.941,1.613-1.596,2.838 c0.336,1.225,1.614,1.941,2.838,1.596c0.621-0.181,1.26-0.38,1.89-0.613C249.716,266.344,251.39,265.973,253.278,265.8z"/> <path class="st0" d="M356.413,183.06c-1.13-0.57-2.518-0.112-3.088,1.026c-0.578,1.139-0.121,2.519,1.018,3.088 c2.26,1.139,4.409,2.269,6.479,3.382c1.104,0.604,2.502,0.19,3.115-0.932c0.603-1.121,0.19-2.518-0.932-3.123 C360.908,185.372,358.708,184.224,356.413,183.06z"/> <path class="st0" d="M297.75,270.218c-0.25-1.251-1.458-2.054-2.708-1.812c-2.52,0.518-4.884,0.958-7.006,1.139 c-1.276,0.112-2.208,1.225-2.105,2.493c0.104,1.269,1.226,2.208,2.485,2.096c2.467-0.207,4.986-0.69,7.54-1.208 C297.198,272.676,298.009,271.46,297.75,270.218z"/> <path class="st0" d="M233.738,264.282c0.552-1.148,0.069-2.52-1.086-3.063c-1.881-0.898-3.952-2.053-6.264-3.434 c-1.087-0.655-2.502-0.301-3.157,0.786c-0.656,1.095-0.294,2.502,0.794,3.157c2.38,1.432,4.564,2.657,6.651,3.649 C231.823,265.92,233.204,265.43,233.738,264.282z"/> <path class="st0" d="M393.501,208.129c-0.88-0.914-2.338-0.949-3.261-0.06c-0.914,0.88-0.931,2.329-0.06,3.252 c1.768,1.846,3.269,3.64,4.503,5.383c0.741,1.035,2.173,1.277,3.218,0.535c1.026-0.733,1.276-2.174,0.535-3.2 C397.055,212.089,395.416,210.122,393.501,208.129z"/> <path class="st0" d="M382.536,201.512c0.75-1.026,0.526-2.467-0.51-3.209c-1.915-1.398-3.968-2.812-6.176-4.244 c-1.07-0.691-2.484-0.38-3.183,0.69c-0.691,1.07-0.388,2.484,0.681,3.183c2.14,1.381,4.132,2.744,5.97,4.081 C380.344,202.763,381.785,202.538,382.536,201.512z"/> <path class="st0" d="M394.475,248.495c-1.251,2.035-2.63,3.934-4.115,5.702c-0.811,0.974-0.69,2.424,0.294,3.235 c0.975,0.828,2.433,0.699,3.244-0.276c1.622-1.932,3.123-4.02,4.504-6.246c0.664-1.079,0.328-2.493-0.76-3.166 C396.563,247.08,395.14,247.407,394.475,248.495z"/> <path class="st0" d="M404.241,236.538c0.268-1.536,0.422-3.124,0.422-4.737c0-1.078-0.078-2.165-0.216-3.278 c-0.163-1.268-1.302-2.156-2.571-2.001c-1.268,0.155-2.148,1.311-2.002,2.58c0.121,0.914,0.173,1.811,0.173,2.7 c0,1.337-0.13,2.648-0.354,3.942c-0.207,1.26,0.622,2.451,1.881,2.666C402.835,238.625,404.026,237.797,404.241,236.538z"/> <path class="st0" d="M363.065,273.271c-0.259-1.243-1.484-2.036-2.726-1.777c-2.295,0.483-4.642,0.845-7.031,1.086 c-1.268,0.139-2.192,1.26-2.062,2.528c0.12,1.268,1.259,2.182,2.518,2.062c2.554-0.259,5.064-0.648,7.523-1.173 C362.53,275.739,363.341,274.514,363.065,273.271z"/> <path class="st0" d="M383.08,264.161c-0.699-1.061-2.123-1.345-3.192-0.656c-1.951,1.294-4.004,2.45-6.126,3.485 c-1.156,0.535-1.64,1.915-1.088,3.072c0.552,1.139,1.933,1.622,3.072,1.07c2.312-1.104,4.546-2.364,6.678-3.779 C383.494,266.654,383.787,265.222,383.08,264.161z"/> <path class="st0" d="M366.395,169.816c-1.191-0.483-2.518,0.087-3.002,1.26c-0.484,1.173,0.086,2.527,1.259,3.002 c0.76,0.311,1.502,0.604,2.226,0.915c1.173,0.483,2.52-0.069,3.011-1.243c0.492-1.173-0.069-2.519-1.251-3.011 C367.904,170.438,367.154,170.119,366.395,169.816z"/> <path class="st0" d="M440.517,257.466c-1.19-0.449-2.518,0.156-2.967,1.346c-0.829,2.226-1.674,4.089-2.312,5.582 c-0.138,0.362-0.311,0.716-0.466,1.079c-0.518,1.156-0.017,2.518,1.139,3.054c1.156,0.517,2.519,0.017,3.055-1.148 c0.189-0.389,0.362-0.802,0.517-1.2c0.604-1.398,1.484-3.356,2.382-5.746C442.312,259.244,441.708,257.915,440.517,257.466z"/> <path class="st0" d="M231.366,285.349c-1.096-0.648-2.51-0.294-3.166,0.793c-0.648,1.087-0.294,2.511,0.793,3.157 c2.261,1.363,4.46,2.588,6.608,3.65c1.139,0.561,2.519,0.094,3.089-1.044c0.569-1.139,0.103-2.518-1.035-3.08 C235.636,287.816,233.54,286.66,231.366,285.349z"/> <path class="st0" d="M426.059,208.206c0.88-0.914,0.845-2.381-0.069-3.252c-1.743-1.656-3.606-3.33-5.633-5.004 c-0.974-0.803-2.433-0.664-3.244,0.31c-0.802,0.975-0.664,2.433,0.302,3.244c1.95,1.613,3.744,3.201,5.392,4.77 C423.721,209.156,425.179,209.13,426.059,208.206z"/> <path class="st0" d="M408.943,194.3c0.69-1.07,0.397-2.502-0.673-3.192c-2.001-1.32-4.106-2.64-6.314-3.952 c-1.104-0.656-2.511-0.302-3.157,0.794c-0.656,1.087-0.293,2.502,0.793,3.158c2.157,1.294,4.21,2.57,6.16,3.847 C406.821,195.654,408.244,195.353,408.943,194.3z"/> <path class="st0" d="M367.637,297.357c-2.372-0.008-4.788-0.069-7.246-0.19c-1.276-0.069-2.346,0.906-2.415,2.174 c-0.069,1.278,0.914,2.347,2.183,2.416c2.528,0.129,5.029,0.198,7.479,0.198c1.278,0,2.313-1.035,2.313-2.303 C369.95,298.376,368.914,297.357,367.637,297.357z"/> <path class="st0" d="M389.213,295.476c-2.312,0.432-4.692,0.785-7.134,1.07c-1.26,0.138-2.165,1.285-2.019,2.554 c0.138,1.26,1.294,2.165,2.545,2.019h0.008c2.537-0.293,5.021-0.664,7.436-1.104c1.251-0.241,2.071-1.432,1.846-2.692 C391.672,296.081,390.464,295.252,389.213,295.476z"/> <path class="st0" d="M442.088,235.64c-1.243,0.181-2.123,1.354-1.95,2.605c0.259,1.837,0.379,3.606,0.379,5.297 c0,0.552-0.017,1.096-0.034,1.631c-0.051,1.268,0.932,2.346,2.192,2.398c1.276,0.06,2.346-0.932,2.415-2.2 c0.018-0.604,0.034-1.209,0.034-1.83c0-1.898-0.138-3.882-0.431-5.935C444.521,236.339,443.347,235.468,442.088,235.64z"/> <path class="st0" d="M438.913,226.048c1.139-0.587,1.588-1.984,1.001-3.106c-1.122-2.156-2.433-4.33-3.986-6.548 c-0.724-1.044-2.174-1.303-3.209-0.57c-1.036,0.733-1.294,2.166-0.569,3.2c1.432,2.062,2.656,4.072,3.675,6.031 C436.394,226.185,437.791,226.625,438.913,226.048z"/> <path class="st0" d="M426.973,276.981c-1.57,1.682-3.312,3.26-5.176,4.762c-1.001,0.785-1.156,2.235-0.371,3.227 c0.786,1.001,2.234,1.164,3.235,0.371c2.036-1.613,3.934-3.347,5.659-5.194c0.88-0.923,0.838-2.39-0.086-3.253 C429.302,276.014,427.853,276.058,426.973,276.981z"/> <path class="st0" d="M409.71,289.119c-2.105,0.983-4.314,1.89-6.616,2.7c-1.191,0.431-1.829,1.742-1.398,2.942 c0.423,1.199,1.743,1.829,2.933,1.398c2.442-0.854,4.779-1.821,7.023-2.864c1.156-0.535,1.656-1.907,1.121-3.063 C412.239,289.084,410.858,288.584,409.71,289.119z"/> <path class="st0" d="M279.876,290.534c-0.863-0.027-1.726-0.044-2.572-0.044c-1.708,0-3.382,0.051-5.004,0.156 c-1.276,0.086-2.243,1.173-2.156,2.441c0.069,1.269,1.164,2.235,2.433,2.148c1.535-0.086,3.123-0.138,4.727-0.138 c0.803,0,1.605,0.017,2.416,0.034c1.277,0.043,2.346-0.949,2.381-2.226C282.153,291.629,281.152,290.576,279.876,290.534z"/> <path class="st0" d="M386.823,184.103c1.122,0.578,2.52,0.121,3.088-1.009c0.57-1.131,0.121-2.528-1.018-3.097 c-2.14-1.088-4.366-2.174-6.678-3.262c-1.148-0.543-2.518-0.043-3.063,1.104c-0.543,1.156-0.042,2.52,1.104,3.063 C382.528,181.972,384.71,183.033,386.823,184.103z"/> <path class="st0" d="M257.558,293.044c-1.234,0.19-2.45,0.285-3.684,0.285c-1.001,0-2.01-0.061-3.036-0.181 c-1.26-0.156-2.398,0.741-2.554,2.01c-0.156,1.268,0.751,2.407,2.018,2.562c1.191,0.138,2.381,0.216,3.572,0.216 c1.466,0,2.933-0.112,4.4-0.346c1.26-0.199,2.123-1.381,1.915-2.64C259.982,293.7,258.808,292.837,257.558,293.044z"/> <path class="st0" d="M301.995,294.553c-0.941-0.216-1.838-0.474-2.675-0.75c-1.449-0.483-2.898-0.898-4.382-1.268 c-1.233-0.302-2.484,0.458-2.786,1.683c-0.302,1.242,0.44,2.484,1.682,2.795c1.363,0.336,2.71,0.724,4.02,1.164 c1.001,0.336,2.036,0.612,3.088,0.854c1.251,0.293,2.485-0.483,2.77-1.717C303.996,296.081,303.22,294.839,301.995,294.553z"/> <path class="st0" d="M323.45,295.908c-1.424,0.017-2.829,0.034-4.21,0.034c-1.044,0-2.079-0.018-3.097-0.026 c-1.268-0.026-2.312,0.992-2.338,2.27c-0.018,1.268,0.992,2.312,2.268,2.328c1.053,0.018,2.105,0.026,3.166,0.026 c1.406,0,2.838-0.009,4.27-0.026c1.268-0.017,2.295-1.061,2.269-2.328C325.771,296.908,324.727,295.891,323.45,295.908z"/> <path class="st0" d="M345.707,295.986c-2.484-0.13-4.986-0.198-7.462-0.216c-1.276-0.008-2.312,1.019-2.329,2.278 c-0.017,1.276,1.01,2.312,2.277,2.329c2.442,0.026,4.866,0.086,7.273,0.216c1.259,0.061,2.346-0.906,2.415-2.182 C347.95,297.142,346.984,296.063,345.707,295.986z"/> <path class="st0" d="M160.272,244.406c-3.175,0-6.074,1.294-8.144,3.373c-2.071,2.079-3.382,4.978-3.364,8.135 c-0.018,3.175,1.293,6.073,3.364,8.144c2.07,2.087,4.969,3.382,8.144,3.382c3.166,0,6.064-1.294,8.144-3.382 c2.07-2.071,3.364-4.969,3.364-8.144c0-3.158-1.294-6.056-3.364-8.135C166.336,245.7,163.438,244.406,160.272,244.406z M164.498,260.158c-1.086,1.087-2.57,1.751-4.227,1.751c-1.674,0-3.141-0.664-4.236-1.751c-1.086-1.095-1.751-2.57-1.751-4.244 c0-1.656,0.664-3.132,1.751-4.227c1.095-1.086,2.562-1.743,4.236-1.751c1.656,0.008,3.14,0.664,4.227,1.751 c1.088,1.096,1.76,2.571,1.76,4.227C166.258,257.588,165.586,259.063,164.498,260.158z"/> <path class="st0" d="M24.863,242.335c-2.416,0-4.366,1.958-4.366,4.382c0,2.407,1.95,4.365,4.366,4.365 c2.415,0,4.383-1.958,4.383-4.365C29.246,244.293,27.278,242.335,24.863,242.335z"/> </g> </g>
</svg>